<?xml version="1.0" encoding="UTF-8"?>
<svg version="1.1" xmlns="http://www.w3.org/2000/svg" width="224" height="232">
<path d="M0 0 C9.04834634 5.8478181 13.2142702 15.65792718 17.60061646 25.05773926 C19.61739096 29.37739895 21.68592609 33.6723879 23.74414062 37.97241211 C24.18016098 38.8871933 24.61618134 39.80197449 25.06541443 40.74447632 C30.00306554 51.0858498 35.11755554 61.33793947 40.24902344 71.584198 C41.76834033 74.61858573 43.2838003 77.65487531 44.79882812 80.69140625 C49.65337906 90.40320516 54.58938509 100.06261737 59.67384338 109.65606689 C63.4651716 116.82386357 67.09661048 124.06615151 70.6965332 131.33154297 C75.61623572 141.2566173 80.5490415 151.17036152 85.74804688 160.95288086 C86.50458377 162.38255435 87.26109498 163.81224143 88.01757812 165.24194336 C89.1912491 167.45916889 90.36662567 169.67541121 91.54638672 171.8894043 C92.85712195 174.36167761 94.14817673 176.84337679 95.43554688 179.32788086 C95.83515625 180.07231445 96.23476562 180.81674805 96.64648438 181.58374023 C99.2824614 186.72722608 99.2824614 186.72722608 99.11132812 190.33569336 C98.24804688 192.45288086 98.24804688 192.45288086 96.24804688 194.45288086 C93.77299421 194.24578524 92.62315688 193.87633236 90.96362305 192.00292969 C87.56749531 186.17342079 84.52749181 180.19864242 81.56054688 174.14038086 C77.94026174 166.81998804 74.280358 159.53296484 70.43554688 152.32788086 C63.4318055 139.17805904 56.87582938 125.79477971 50.24804688 112.45288086 C49.56295044 113.38390625 49.56295044 113.38390625 48.86401367 114.33374023 C47.94616089 115.55287109 47.94616089 115.55287109 47.00976562 116.79663086 C46.40865967 117.60293945 45.80755371 118.40924805 45.18823242 119.23999023 C41.45975108 123.49253269 36.66165953 125.25829144 31.24804688 126.45288086 C28.45250769 126.54753848 25.68230815 126.58942639 22.88696289 126.58227539 C22.04584961 126.58402771 21.20473633 126.58578003 20.33813477 126.58758545 C17.55938652 126.59198443 14.78070201 126.58907256 12.00195312 126.58569336 C10.06908659 126.58636702 8.13622013 126.58733757 6.20335388 126.58859253 C2.15240675 126.59006691 -1.89851832 126.5879235 -5.94946289 126.58325195 C-11.13911669 126.57755864 -16.32871873 126.5808328 -21.51837063 126.58682442 C-25.51007984 126.59044027 -29.50177682 126.58928665 -33.4934864 126.58669662 C-35.40683053 126.58603 -37.32017577 126.58684655 -39.2335186 126.58917618 C-41.90953382 126.59171905 -44.5854656 126.58783882 -47.26147461 126.58227539 C-48.0507283 126.58429962 -48.83998199 126.58632385 -49.65315247 126.58840942 C-53.47729383 126.57370058 -57.03454794 126.38143287 -60.75195312 125.45288086 C-63.53021596 130.84064429 -66.30515825 136.23010037 -69.07714844 141.62109375 C-70.0189643 143.45163133 -70.96165747 145.28171783 -71.90527344 147.11132812 C-73.26798381 149.75392029 -74.6274432 152.39816368 -75.98632812 155.04272461 C-76.40315857 155.84935043 -76.81998901 156.65597626 -77.24945068 157.48704529 C-83.409783 167.96914736 -83.409783 167.96914736 -84.75195312 179.45288086 C-82.73735834 183.00192608 -82.73735834 183.00192608 -79.75195312 185.45288086 C-76.57587281 186.27609285 -73.90211041 186.37878916 -70.75195312 185.45288086 C-65.05344825 181.59686665 -61.73545984 176.46005144 -58.00195312 170.76538086 C-56.86308 169.05197554 -55.72253297 167.33968131 -54.58007812 165.62866211 C-54.08411133 164.87496338 -53.58814453 164.12126465 -53.07714844 163.34472656 C-51.75195312 161.45288086 -51.75195312 161.45288086 -49.75195312 159.45288086 C-45.19639757 160.00843641 -45.19639757 160.00843641 -43.75195312 161.45288086 C-44.02997498 167.47167821 -45.89591672 170.79353403 -49.43945312 175.39038086 C-50.12056152 176.30279541 -50.12056152 176.30279541 -50.81542969 177.23364258 C-51.71471176 178.43642434 -52.61902383 179.635465 -53.52880859 180.83032227 C-54.55981162 182.19799614 -55.55303614 183.59402974 -56.53710938 184.99584961 C-60.17958646 190.1730237 -63.61203635 193.40624193 -69.75195312 195.45288086 C-76.02860254 196.02348535 -81.22299652 195.74898961 -86.75195312 192.45288086 C-91.45699516 188.05209096 -94.35015138 183.80122874 -95.12695312 177.32788086 C-93.92408598 164.89825374 -86.25829702 153.38617081 -80.56445312 142.51538086 C-79.17199812 139.8501406 -77.78157125 137.18391033 -76.39616394 134.51499939 C-75.53907891 132.86444667 -74.67785524 131.21603464 -73.81196594 129.57008362 C-73.4245372 128.82508102 -73.03710846 128.08007843 -72.63793945 127.3125 C-72.29692703 126.66172989 -71.95591461 126.01095978 -71.60456848 125.34046936 C-70.69826025 123.33401125 -70.04299878 121.64035935 -69.75195312 119.45288086 C-71.60445316 116.21526952 -71.60445316 116.21526952 -73.75195312 113.45288086 C-76.57134731 116.89554986 -78.49085433 120.68098188 -80.44140625 124.65234375 C-80.97615822 125.72863792 -80.97615822 125.72863792 -81.52171326 126.82667542 C-82.29279949 128.37977969 -83.06206195 129.93379048 -83.82969666 131.48860359 C-85.0448658 133.94915241 -86.26539042 136.40697577 -87.48742676 138.86412048 C-90.96000769 145.84900197 -94.42237004 152.83893494 -97.88232422 159.83007812 C-100.00098044 164.11007736 -102.12545887 168.3871462 -104.25340271 172.66253471 C-105.06268756 174.29167608 -105.86963796 175.92197925 -106.67420959 177.55345345 C-107.79822469 179.8326399 -108.92953492 182.10806493 -110.0625 184.3828125 C-110.39297836 185.05769714 -110.72345673 185.73258179 -111.06394958 186.42791748 C-114.13825012 192.56432784 -114.13825012 192.56432784 -116.75195312 194.45288086 C-119.43945312 194.14038086 -119.43945312 194.14038086 -121.75195312 193.45288086 C-123.23930218 188.07008668 -121.99613866 184.80188434 -119.54052734 180.02761841 C-119.18288457 179.30126407 -118.82524179 178.57490972 -118.45676136 177.82654464 C-117.25516527 175.39614048 -116.03103861 172.97782506 -114.80664062 170.55883789 C-113.93996882 168.81792758 -113.07467143 167.07633247 -112.21064758 165.33410645 C-109.85928651 160.60343488 -107.48789677 155.88306833 -105.1121788 151.16459131 C-102.62699263 146.22191732 -100.15805977 141.27113358 -97.68676758 136.32150269 C-93.53137954 128.00531974 -89.36308748 119.6957042 -85.18701172 111.38989258 C-80.36529666 101.79959951 -75.56347212 92.19955462 -70.77241135 82.5939151 C-66.15919566 73.34588441 -61.53238504 64.10472087 -56.89923096 54.86666489 C-54.93015573 50.94000453 -52.96574215 47.01106459 -51.00506592 43.08020401 C-48.69160734 38.44370536 -46.3662327 33.81337498 -44.03172874 29.18743896 C-43.17908888 27.49324138 -42.33046025 25.79701787 -41.48626137 24.09859848 C-30.49240435 1.99686228 -30.49240435 1.99686228 -20.20507812 -1.92211914 C-13.2931824 -3.68311168 -6.34816069 -3.4120613 0 0 Z M-23.75195312 10.45288086 C-25.97330377 13.50548808 -27.55689799 16.8067469 -29.18945312 20.20288086 C-29.68823975 21.19932617 -30.18702637 22.19577148 -30.70092773 23.22241211 C-32.09631979 26.01616649 -33.47387085 28.81807465 -34.84851074 31.62207031 C-36.44275974 34.85278866 -38.07167533 38.06597667 -39.69726562 41.28100586 C-47.58493309 56.90568106 -55.35380483 72.5894018 -62.75195312 88.45288086 C-63.13681885 89.25636963 -63.52168457 90.0598584 -63.91821289 90.88769531 C-65.79598362 94.90792806 -67.30057708 98.23893165 -67.18945312 102.76538086 C-67.18816406 103.56588867 -67.186875 104.36639648 -67.18554688 105.19116211 C-66.66129806 107.92575726 -65.46162042 109.2954638 -63.75195312 111.45288086 C-56.96957224 97.91144778 -50.18946277 84.36887918 -43.41207886 70.8249445 C-40.26538712 64.53672405 -37.11794447 58.24888155 -33.96875 51.96191406 C-30.93249478 45.90041026 -27.89831128 39.8378732 -24.86541748 33.77468681 C-23.70503026 31.4557673 -22.54393632 29.13720131 -21.38214111 26.81898689 C-19.76138021 23.58467053 -18.14308358 20.34913292 -16.52539062 17.11328125 C-15.79603302 15.65995895 -15.79603302 15.65995895 -15.05194092 14.17727661 C-14.61440491 13.30082993 -14.1768689 12.42438324 -13.72607422 11.52137756 C-13.34260834 10.75536759 -12.95914246 9.98935762 -12.5640564 9.20013523 C-11.68170543 7.62286862 -11.68170543 7.62286862 -11.75195312 6.45288086 C-16.54663483 5.87170732 -20.10584486 7.44453086 -23.75195312 10.45288086 Z M-3.75195312 9.45288086 C-10.68925897 23.2341621 -17.6174681 37.01998699 -24.53479099 50.81130791 C-27.74664406 57.21436527 -30.9614879 63.6158881 -34.18334961 70.01391602 C-36.99063742 75.5886948 -39.79233968 81.16623801 -42.587295 86.74721062 C-44.06819454 89.70378285 -45.55272758 92.658438 -47.04229927 95.61065292 C-48.70234504 98.90190688 -50.35246998 102.1979506 -52.00024414 105.49536133 C-52.49942856 106.47934906 -52.99861298 107.46333679 -53.51292419 108.47714233 C-54.17978745 109.81911682 -54.17978745 109.81911682 -54.86012268 111.1882019 C-55.44776571 112.3579572 -55.44776571 112.3579572 -56.04728031 113.55134392 C-56.27982234 114.17885111 -56.51236437 114.8063583 -56.75195312 115.45288086 C-56.42195313 116.11288086 -56.09195313 116.77288086 -55.75195312 117.45288086 C-48.49195312 117.45288086 -41.23195313 117.45288086 -33.75195312 117.45288086 C-35.07195312 114.48288086 -36.39195313 111.51288086 -37.75195312 108.45288086 C-40.72357318 96.56640065 -34.11700918 86.57601816 -28.75195312 76.45288086 C-28.20297363 75.40567871 -27.65399414 74.35847656 -27.08837891 73.27954102 C-25.25710873 69.79024904 -23.41299783 66.3080492 -21.56445312 62.82788086 C-20.97051758 61.7013208 -20.37658203 60.57476074 -19.76464844 59.4140625 C-12.03673554 45.0048602 -12.03673554 45.0048602 -5.68945312 42.14038086 C-5.03847656 41.83487305 -4.3875 41.52936523 -3.71679688 41.21459961 C0.2899612 39.66128386 3.69443171 39.33914735 7.99804688 39.39038086 C8.98289062 39.3994043 9.96773438 39.40842773 10.98242188 39.41772461 C12.10390625 39.43512695 12.10390625 39.43512695 13.24804688 39.45288086 C11.57654135 33.76224971 9.01282202 28.6151273 6.37304688 23.32788086 C5.93863281 22.43456055 5.50421875 21.54124023 5.05664062 20.62084961 C2.00141404 14.41287222 2.00141404 14.41287222 -2.75195312 9.45288086 C-3.08195312 9.45288086 -3.41195312 9.45288086 -3.75195312 9.45288086 Z M-7.91210938 54.42944336 C-8.56538165 55.6354066 -9.19831937 56.85252737 -9.81445312 58.07788086 C-10.17095947 58.74867676 -10.52746582 59.41947266 -10.89477539 60.1105957 C-11.71262276 61.65065165 -12.52288369 63.19475079 -13.32714844 64.74194336 C-14.97304193 67.87354056 -16.66870063 70.97557164 -18.36914062 74.07788086 C-19.64313742 76.41090887 -20.91657436 78.74424268 -22.18945312 81.07788086 C-22.80506104 82.20403809 -23.42066895 83.33019531 -24.05493164 84.49047852 C-24.63428467 85.56346191 -25.2136377 86.63644531 -25.81054688 87.74194336 C-26.32931396 88.69794434 -26.84808105 89.65394531 -27.38256836 90.63891602 C-30.12710764 96.27870203 -31.80567737 101.29170813 -29.75195312 107.45288086 C-27.21331297 111.4444043 -24.2999601 114.8788618 -19.75195312 116.45288086 C-16.83000561 116.68651723 -13.93071399 116.64102164 -11.00195312 116.57788086 C-10.20917969 116.56885742 -9.41640625 116.55983398 -8.59960938 116.55053711 C-6.65026031 116.52705098 -4.70106738 116.49118223 -2.75195312 116.45288086 C-3.02910156 115.89600586 -3.30625 115.33913086 -3.59179688 114.76538086 C-7.11221743 107.34869415 -8.74699436 101.11333127 -6.67773438 93.01928711 C-3.30720986 83.67568119 1.70637146 74.88849249 10.24804688 69.45288086 C15.1447397 67.40310247 20.00980698 66.89522112 25.24804688 66.45288086 C20.62214011 55.96132848 20.62214011 55.96132848 12.24804688 48.45288086 C4.15050467 45.75370013 -2.8460412 47.44871288 -7.91210938 54.42944336 Z M8.28710938 81.70678711 C3.98584676 87.49948369 -0.39773358 94.89742197 -0.00195312 102.32788086 C0.95748831 107.02136464 3.6362694 110.39936407 7.24804688 113.45288086 C11.77323802 116.10679345 16.00017065 115.82048854 21.12304688 115.82788086 C22.00863281 115.85237305 22.89421875 115.87686523 23.80664062 115.90209961 C29.47949398 115.92746259 32.76849019 115.26467754 37.24804688 111.45288086 C40.99885832 107.30724715 42.04913903 103.77387404 41.83398438 98.31225586 C40.17502376 90.21652805 35.35433405 82.89440893 29.24804688 77.45288086 C21.66636432 72.65986315 13.8794521 75.27893501 8.28710938 81.70678711 Z " fill="#FEFEFE" transform="translate(122.751953125,23.547119140625)"/>
</svg>
